# xmcd
#
# Track frame offsets:
#	150
#	12485
#	40291
#	57175
#	70320
#	85870
#	106014
#	124003
#	142777
#	162742
#	180454
#	198412
#	215049
#	233445
#	247684
#	257562
#	276544
#	294384
#	314128
#	333685
#
# Disc length: 4709 seconds
#
# Revision: 1
# Processed by: cddbd v1.5.2PL0 Copyright (c) Steve Scherf et al.
# Submitted via: audiograbber 1.83.01
#
DISCID=28126314
DTITLE=Various Artist - Summer Trance 2010
DYEAR=2010
DGENRE=Trance
TTITLE0=Rank 1 and Jochen Miller - The Great Escape (Radio Edit)
TTITLE1=Southside Spinners - Luvstruck 2010 (Benny Royal Mix)
TTITLE2=Cosmic Gate - Barra (Edit)
TTITLE3=Armin van Buuren feat. Van Velzen - Broken Tonight (Original Mix Edit)
TTITLE4=Chicane - Hiding All The Stars (Original Club Mix)
TTITLE5=First State - Cape Point (Jason van Wyk Remix Edit)
TTITLE6=BT feat. Yes - Every Other Way (Armin van Buuren Remix)
TTITLE7=Nic Chagall - Morning Light (Remixed)
TTITLE8=Leon Bolier and Precursor - The Journey (Original Mix)
TTITLE9=4 Strings - Daytime (Sean Tyas Remix)
TTITLE10=Guiseppe Ottaviani feat. Faith - Angel (Club Mix)
TTITLE11=Kyau and Albert - I Love You (Cosmic Gate Edit)
TTITLE12=Ronski Speed pres. Sun Decade feat. Emma Hewitt - Lasting Light (Duder
TTITLE12=stadt Progressive Edit)
TTITLE13=Cressida - Two-O-Ten (Original Edit)
TTITLE14=Ummet Ozcan - Trinity (Original Mix)
TTITLE15=Simon Patterson - Taxi (Original Mix)
TTITLE16=Signum - First Strike 2010 (Sebastian Brandt Remix)
TTITLE17=Max Graham feat. Neev Kennedy - Sun In The Winter (Alex M.O.R.P.H. Rem
TTITLE17=ix)
TTITLE18=Leon Bolier and Marcus Schossow - 2099 (Original Mix)
TTITLE19=Ali Wilson - Pandora (Dyor Radio Edit)
EXTD=
EXTT0=
EXTT1=
EXTT2=
EXTT3=
EXTT4=
EXTT5=
EXTT6=
EXTT7=
EXTT8=
EXTT9=
EXTT10=
EXTT11=
EXTT12=
EXTT13=
EXTT14=
EXTT15=
EXTT16=
EXTT17=
EXTT18=
EXTT19=
PLAYORDER=
